<svg version="1.1" id="Layer_1" xmlns="http://www.w3.org/2000/svg" xmlns:xlink="http://www.w3.org/1999/xlink" x="0px" y="0px"
	 width="100%" viewBox="0 0 1024 368" enable-background="new 0 0 1024 368" xml:space="preserve">
<path fill="#000000" opacity="1.000000" stroke="none" 
	d="
M217.990234,26.921429 
	C245.611267,27.751028 272.753571,28.216457 299.789856,30.816332 
	C329.777588,33.700027 356.122528,58.957714 361.182220,90.091423 
	C363.721588,105.716934 364.231384,121.548302 364.260712,137.368759 
	C364.270294,142.526108 361.319153,145.494400 356.772491,145.424576 
	C352.637054,145.361053 350.057434,142.365875 349.669708,137.367752 
	C348.409454,121.122040 349.032288,104.717178 345.782288,88.641151 
	C341.176270,65.857864 318.642426,46.706299 295.522583,45.207474 
	C255.261475,42.597401 214.962830,41.609184 174.641205,42.443710 
	C152.837296,42.894978 131.023163,43.907169 109.269257,45.450291 
	C82.584702,47.343166 59.896549,71.831352 58.170456,98.536079 
	C56.104691,130.495865 55.628990,162.465164 56.377789,194.450562 
	C56.720161,209.075302 56.711815,223.827362 59.434677,238.244232 
	C62.307644,253.455856 70.344643,265.789734 83.586426,274.109894 
	C92.526077,279.726929 96.560799,287.418945 96.380638,297.840057 
	C96.173241,309.836151 96.352676,321.838776 96.345398,333.838562 
	C96.342484,338.636292 97.377251,342.986359 102.450821,344.755524 
	C107.338547,346.459869 110.574310,343.748566 113.496109,340.101898 
	C124.643707,326.188690 136.081970,312.505096 147.067413,298.466400 
	C153.523544,290.215881 161.305725,286.057983 171.987579,286.544159 
	C183.797668,287.081696 195.647751,286.726685 207.480133,286.801880 
	C209.469971,286.814514 211.509796,286.799133 213.436569,287.214233 
	C217.081772,287.999512 219.252731,290.280121 219.410446,294.179230 
	C219.572128,298.176697 217.364288,300.314148 213.776291,301.346436 
	C211.350922,302.044250 208.874557,302.163208 206.352127,302.101196 
	C194.697098,301.814606 183.035431,301.731903 171.386368,301.300415 
	C166.428207,301.116791 162.855713,302.824677 159.779083,306.705475 
	C147.981598,321.586578 136.001251,336.322693 124.087006,351.111145 
	C117.600792,359.162079 107.129036,362.281921 97.617760,359.002960 
	C88.052620,355.705475 81.747520,346.904480 81.679199,336.460022 
	C81.595245,323.627441 81.583900,310.793396 81.683098,297.961090 
	C81.720009,293.186951 79.896301,289.709045 75.902580,287.083557 
	C54.818203,273.222656 44.453819,253.210556 43.028179,228.411667 
	C41.527325,202.304428 40.085247,176.177536 40.827209,150.009491 
	C41.369781,130.873566 41.384022,111.656372 43.869766,92.672470 
	C48.099632,60.368572 74.287216,34.454269 105.709557,30.824650 
	C125.194054,28.573978 144.882736,28.201536 164.520233,27.603409 
	C182.178543,27.065561 199.830399,26.794350 217.990234,26.921429 
z"/>
<path fill="#000000" opacity="1.000000" stroke="none" 
	d="
M403.021851,161.829224 
	C418.666443,171.253189 426.228821,184.903488 427.478607,202.689087 
	C428.179535,212.663651 428.659485,222.662567 428.626312,232.605942 
	C428.566498,250.536011 429.684937,268.586121 426.232666,286.360291 
	C423.772278,299.027771 418.435852,310.086884 407.030975,317.243042 
	C404.544037,318.803528 404.086609,321.012360 404.105560,323.653564 
	C404.155762,330.649506 404.293762,337.652740 404.047974,344.640839 
	C403.728516,353.724579 399.080383,360.508026 391.557129,362.645203 
	C383.429504,364.954102 376.863739,362.121918 371.744080,355.590240 
	C370.922180,354.541626 370.060944,353.523956 369.229004,352.483124 
	C363.614166,345.458466 357.905334,338.505737 352.436401,331.369202 
	C350.197083,328.447052 347.702179,327.251587 343.955872,327.369720 
	C318.149597,328.183624 292.365051,327.626801 266.642487,325.296417 
	C246.973328,323.514435 228.584671,304.542053 226.691589,284.439972 
	C223.920746,255.017258 224.182037,225.588120 226.793365,196.192337 
	C228.662994,175.145737 248.846741,156.950439 270.469055,155.646515 
	C296.248627,154.091904 322.037659,153.416183 347.847748,154.009918 
	C360.153473,154.292999 372.464600,154.948120 384.734680,155.921570 
	C391.044098,156.422119 397.114990,158.463730 403.021851,161.829224 
M240.017593,243.499802 
	C240.124146,255.813889 240.339172,268.127991 241.377823,280.403198 
	C242.254578,290.764862 246.865555,299.070312 255.434677,305.150513 
	C262.471741,310.143646 270.509888,310.626129 278.737427,311.120758 
	C299.678528,312.379669 320.603546,313.353607 341.587189,312.231842 
	C350.871857,311.735504 358.798248,314.184784 364.598602,322.390381 
	C370.163086,330.262299 376.525269,337.573090 382.603088,345.076874 
	C383.696625,346.426971 384.664398,348.592346 386.859650,347.897705 
	C389.353027,347.108734 388.737549,344.646698 388.758545,342.738464 
	C388.831848,336.077393 388.813324,329.415131 388.803345,322.753387 
	C388.792328,315.398651 391.555908,309.627991 397.860870,305.475525 
	C405.770721,300.266022 410.713165,292.898315 411.781097,283.408447 
	C412.690857,275.324493 413.393463,267.186646 413.583405,259.058502 
	C414.019073,240.417358 413.718658,221.779434 412.694305,203.148590 
	C411.748260,185.941269 400.394867,173.210999 383.414093,171.152603 
	C365.527435,168.984406 347.525116,169.097946 329.554108,169.063736 
	C309.417206,169.025391 289.259857,168.952667 269.202606,171.235062 
	C253.996246,172.965439 242.224152,185.461365 241.338562,200.590973 
	C240.521515,214.549652 239.968048,228.515015 240.017593,243.499802 
z"/>
<path fill="#000000" opacity="1.000000" stroke="none" 
	d="
M206.208313,92.859016 
	C219.451950,111.697166 218.064072,130.901413 201.928497,147.492935 
	C187.064224,162.777252 171.963287,177.843613 156.612503,192.638580 
	C145.104782,203.729675 131.203171,207.013901 115.965553,201.997177 
	C101.558861,197.254044 92.277458,187.128296 89.332497,172.207245 
	C86.756096,159.153641 89.184753,146.757217 98.750183,136.921967 
	C114.548012,120.678543 130.415710,104.476173 146.856354,88.891983 
	C165.061752,71.634972 188.427582,73.419365 206.208313,92.859016 
M149.334274,178.841156 
	C154.281433,174.188889 159.228592,169.536621 164.013168,165.037262 
	C151.440186,152.660507 139.753006,141.155731 127.638298,129.230087 
	C121.180191,136.057617 112.753166,142.256470 107.153831,150.975449 
	C100.597916,161.183990 102.999321,173.988373 111.774635,182.348953 
	C119.775513,189.971695 136.911270,192.751785 149.334274,178.841156 
M185.985428,95.400795 
	C179.742844,92.220383 173.271484,91.521347 166.662491,93.983131 
	C154.669891,98.450264 148.622665,109.611221 140.367096,116.505836 
	C152.318466,128.768112 163.755463,140.502625 175.417236,152.467789 
	C181.783646,146.495270 188.506104,140.708252 193.898560,133.754349 
	C204.282028,120.364220 201.101257,104.638474 185.985428,95.400795 
z"/>
<path fill="#000000" opacity="1.000000" stroke="none" 
	d="
M766.842224,203.241226 
	C764.721985,210.000748 760.037048,213.143494 753.718079,213.521591 
	C746.421570,213.958160 739.088928,213.828003 731.771667,213.854446 
	C729.942322,213.861069 727.771484,213.737869 727.807129,211.169144 
	C727.841431,208.690735 726.281311,205.290161 729.498779,204.080215 
	C732.435852,202.975647 732.680847,201.199173 732.667969,198.737000 
	C732.626221,190.749115 732.627319,182.760773 732.665405,174.772858 
	C732.676331,172.485779 732.447632,170.858688 729.716492,169.837006 
	C726.165283,168.508530 727.793823,164.972992 727.849243,162.364334 
	C727.910828,159.465485 730.453979,159.811829 732.377075,159.791748 
	C738.700195,159.725677 745.027466,159.642822 751.347473,159.796478 
	C759.081482,159.984512 764.425110,163.539764 766.445129,169.856567 
	C768.612793,176.635300 767.041504,182.317062 760.962463,186.454544 
	C760.587830,186.709534 760.375122,187.202530 759.868530,187.874817 
	C765.828125,191.186920 768.354370,196.141434 766.842224,203.241226 
M743.419861,172.976807 
	C743.266663,182.427185 744.747498,183.865631 752.482361,181.779755 
	C756.697388,180.643082 758.187317,174.970367 755.088745,171.856796 
	C752.653198,169.409607 746.492615,169.567123 743.419861,172.976807 
M744.448120,203.102051 
	C745.411255,203.288681 746.368835,203.597916 747.338501,203.642120 
	C753.830505,203.938110 756.950134,201.875504 756.604309,197.588074 
	C756.301758,193.837723 752.373901,191.844666 746.828674,192.321518 
	C744.277710,192.540878 743.255066,193.708755 743.372437,196.113480 
	C743.476624,198.248474 743.006348,200.432190 744.448120,203.102051 
z"/>
<path fill="#000000" opacity="1.000000" stroke="none" 
	d="
M546.263733,170.673004 
	C540.854614,169.304489 542.793030,165.289139 542.856018,162.335358 
	C542.924561,159.117874 545.817932,159.787781 547.839539,159.767761 
	C554.324707,159.703598 560.827637,159.495789 567.293579,159.868210 
	C578.243835,160.498947 584.610168,169.848282 581.291748,179.760162 
	C580.090881,183.347229 577.380371,185.369476 573.770142,187.354141 
	C579.836853,190.885559 583.192566,195.394073 581.803589,202.251587 
	C580.533020,208.524658 576.715210,212.324051 569.965088,213.361298 
	C562.037537,214.579498 554.030396,213.826859 546.057373,213.831085 
	C544.286255,213.832031 542.558716,213.237823 542.745667,211.022522 
	C542.952209,208.575851 541.252319,205.349396 544.538635,203.973862 
	C546.534546,203.138458 547.580322,202.210770 547.574158,200.081879 
	C547.548157,191.101456 547.564453,182.120804 547.490295,173.140854 
	C547.484070,172.387405 546.920471,171.638550 546.263733,170.673004 
M558.307129,175.584549 
	C558.414978,182.003204 559.428101,182.788208 566.108154,181.974274 
	C569.985901,181.501785 571.762329,179.163132 571.510254,175.551544 
	C571.217102,171.351746 568.136292,170.257278 564.447266,170.194611 
	C561.232056,170.139984 557.732239,169.630615 558.307129,175.584549 
M564.259033,203.685852 
	C568.206543,203.778549 571.473328,202.578674 571.488525,198.068359 
	C571.504211,193.428848 567.790161,192.597992 564.140381,192.414856 
	C561.470703,192.280899 558.035522,191.469040 558.329590,196.165390 
	C558.549561,199.677460 556.772095,204.523270 564.259033,203.685852 
z"/>
<path fill="#000000" opacity="1.000000" stroke="none" 
	d="
M823.717102,180.844299 
	C831.212952,173.123505 839.016785,172.447250 848.864563,178.990280 
	C848.864563,173.764435 848.995544,169.043274 848.826416,164.332901 
	C848.668396,159.931152 851.325989,159.716003 854.662659,159.674530 
	C858.165710,159.630997 859.807495,160.714401 859.784058,164.526657 
	C859.695007,179.000122 859.854675,193.475006 859.871216,207.949387 
	C859.874207,210.544754 860.398621,213.712387 856.369568,213.827728 
	C853.054138,213.922638 848.971619,215.150162 848.481445,209.299988 
	C842.931641,215.509933 836.234741,215.716278 829.560120,213.045502 
	C822.792419,210.337524 820.522522,204.074875 819.773865,197.349564 
	C819.131714,191.581406 820.178345,186.071045 823.717102,180.844299 
M843.216248,203.781189 
	C847.980896,202.037292 848.897583,198.193649 848.805481,193.719009 
	C848.725525,189.834503 847.117554,186.951248 843.500610,185.438797 
	C839.594604,183.805466 835.892334,184.449493 832.858215,187.344238 
	C829.987000,190.083694 829.440430,196.199509 831.705566,200.016083 
	C834.156860,204.146301 837.976501,205.169861 843.216248,203.781189 
z"/>
<path fill="#000000" opacity="1.000000" stroke="none" 
	d="
M895.155396,166.136017 
	C895.887756,159.809387 896.670288,159.267929 902.307251,159.714737 
	C905.098694,159.936005 906.114197,161.311874 906.113403,163.867142 
	C906.108582,179.195831 906.085327,194.524567 906.123596,209.853149 
	C906.131348,212.969345 904.379089,213.888992 901.674133,213.882889 
	C898.315369,213.875305 894.533630,214.492859 895.091675,208.884338 
	C888.135620,215.482895 878.437378,216.254578 872.326660,210.980621 
	C864.847839,204.525864 863.770874,189.238983 870.186157,180.597855 
	C875.385376,173.594864 885.172058,172.669846 894.459778,178.369492 
	C896.017639,174.490082 894.983582,170.491409 895.155396,166.136017 
M894.700500,190.802475 
	C892.027588,185.477966 888.747498,183.758438 883.600098,184.983261 
	C878.919861,186.096939 876.796570,189.380920 876.999512,195.191879 
	C877.181702,200.410385 879.666077,203.519943 884.350159,204.392380 
	C891.361511,205.698303 895.916138,200.113419 894.700500,190.802475 
z"/>
<path fill="#000000" opacity="1.000000" stroke="none" 
	d="
M950.579773,187.698883 
	C950.526184,199.227036 950.584351,210.361099 950.416748,221.491760 
	C950.328979,227.321365 948.299561,229.189926 942.482422,229.274628 
	C937.158325,229.352127 931.826965,229.136124 926.508423,229.323715 
	C922.746826,229.456390 921.662415,227.808823 921.606018,224.255814 
	C921.546143,220.479126 922.694946,218.571121 926.695190,218.879593 
	C928.513916,219.019836 930.354248,218.882599 932.184753,218.868210 
	C940.452393,218.803238 940.588196,218.635208 939.363403,209.166580 
	C936.377930,213.353409 932.517578,214.616592 927.923096,214.401108 
	C921.415283,214.095886 916.920349,210.683197 915.615417,204.176300 
	C913.898376,195.614838 914.935547,186.925278 914.942566,178.293915 
	C914.945618,174.483185 918.216553,175.223679 920.557983,175.178757 
	C922.921509,175.133453 925.353821,175.256149 925.314941,178.730515 
	C925.253540,184.221268 925.288574,189.713867 925.348145,195.204987 
	C925.415649,201.426331 927.903259,204.566193 932.612732,204.504364 
	C937.313477,204.442657 939.719666,201.386368 939.847107,195.094177 
	C939.951599,189.937088 939.999268,184.775864 939.917480,179.618927 
	C939.852783,175.546646 942.464905,175.162582 945.544373,175.119385 
	C948.793762,175.073822 951.158508,175.889862 950.905701,179.826660 
	C950.745972,182.315231 950.696655,184.810913 950.579773,187.698883 
z"/>
<path fill="#000000" opacity="1.000000" stroke="none" 
	d="
M665.291748,203.675262 
	C669.593628,203.631744 673.669189,202.940002 673.225891,209.176865 
	C672.982056,212.606857 671.676514,213.943726 668.381714,213.925385 
	C659.559265,213.876251 650.735962,213.875168 641.913757,213.950089 
	C638.400269,213.979904 636.810974,212.651031 636.874695,208.910217 
	C636.938599,205.153381 638.158813,203.583344 642.145081,203.620331 
	C649.887024,203.692154 649.889771,203.492447 649.895569,195.697144 
	C649.900208,189.537811 649.900696,183.378479 649.905518,177.219147 
	C649.910828,170.382172 649.912415,170.255219 643.148071,170.237900 
	C639.603455,170.228821 637.553406,169.490936 637.560120,165.280807 
	C637.566467,161.286194 638.720886,159.420639 642.965088,159.689041 
	C646.944275,159.940674 650.968567,159.963257 654.943176,159.675491 
	C659.525940,159.343704 661.171082,161.189346 661.096924,165.716629 
	C660.916870,176.700333 661.062195,187.689392 661.075195,198.676285 
	C661.078308,201.291016 661.080627,203.902695 665.291748,203.675262 
z"/>
<path fill="#000000" opacity="1.000000" stroke="none" 
	d="
M789.644470,203.374695 
	C796.843384,205.680710 800.598694,203.142197 800.862244,195.980850 
	C801.045654,190.998779 801.033325,186.003540 800.919434,181.018494 
	C800.835510,177.344315 801.610352,174.943130 806.077759,175.029129 
	C810.114685,175.106842 812.218628,176.260391 812.112854,180.768570 
	C811.894531,190.074890 812.029419,199.389999 812.058594,208.701355 
	C812.067078,211.416519 811.751831,213.869080 808.242004,213.835297 
	C805.093323,213.805008 801.170898,215.088913 800.609375,209.207336 
	C798.212097,211.821213 795.926575,213.845566 792.676392,214.295898 
	C783.590210,215.554764 777.671997,211.540283 776.342041,202.439224 
	C775.185852,194.527969 775.805725,186.506073 776.052673,178.537491 
	C776.177063,174.521866 779.472534,175.229996 782.031433,175.144318 
	C784.697876,175.055038 786.466309,175.872131 786.375854,179.105682 
	C786.227051,184.422089 786.346436,189.746170 786.365112,195.066986 
	C786.375854,198.124023 786.756470,201.054886 789.644470,203.374695 
z"/>
<path fill="#000000" opacity="1.000000" stroke="none" 
	d="
M707.268311,183.999603 
	C707.268372,188.662933 707.260376,192.826492 707.270081,196.990005 
	C707.285278,203.537430 707.297974,203.794357 713.738281,203.603210 
	C718.249390,203.469315 719.530151,205.270218 719.374878,209.507477 
	C719.254211,212.800812 717.912598,213.948608 714.857605,213.932480 
	C706.031250,213.885895 697.203979,213.846039 688.378418,213.938721 
	C684.725769,213.977097 683.451294,212.446198 683.531433,208.805481 
	C683.607300,205.362732 684.416321,203.324753 688.305725,203.684891 
	C689.790527,203.822372 691.302063,203.639175 692.799500,203.678101 
	C695.212219,203.740814 696.589966,202.780762 696.587036,200.199844 
	C696.577026,191.373413 696.649414,182.546524 696.582336,173.720627 
	C696.543701,168.632721 692.527771,170.378220 689.923950,170.241440 
	C684.250793,169.943420 683.544189,169.226929 683.774475,163.859848 
	C683.903442,160.854263 685.226807,159.709686 688.098816,159.748657 
	C692.927551,159.814178 697.760803,159.859390 702.586487,159.717819 
	C706.050110,159.616180 707.349609,161.163559 707.292664,164.514648 
	C707.185181,170.841339 707.265808,177.171234 707.268311,183.999603 
z"/>
<path fill="#000000" opacity="1.000000" stroke="none" 
	d="
M615.179016,194.911469 
	C615.182373,196.563171 615.286316,197.739960 615.169861,198.894531 
	C614.793274,202.628265 616.469177,203.822922 620.121582,203.758789 
	C625.490601,203.664520 626.489624,205.116089 625.965637,210.257126 
	C625.710999,212.755432 624.484924,213.859726 622.130920,213.866959 
	C613.298767,213.894073 604.466492,213.867599 595.634338,213.897461 
	C591.726013,213.910675 591.691528,211.319504 591.671631,208.447510 
	C591.651306,205.516083 592.345825,203.512939 595.807007,203.712143 
	C597.135010,203.788574 598.478271,203.614334 599.804565,203.703674 
	C602.724182,203.900375 604.159668,202.645874 604.174011,199.675629 
	C604.181213,198.181168 604.467041,196.690231 604.535706,195.193527 
	C604.942017,186.340805 604.946350,186.205048 596.240662,185.340881 
	C592.896362,185.008896 592.647522,183.081360 592.681580,180.558121 
	C592.715210,178.058884 592.252441,175.219131 596.048767,175.182495 
	C601.370544,175.131134 606.694885,175.145966 612.015564,175.256927 
	C614.654968,175.311981 615.187744,177.204041 615.180115,179.427063 
	C615.162964,184.426788 615.177246,189.426605 615.179016,194.911469 
z"/>
<path fill="#000000" opacity="1.000000" stroke="none" 
	d="
M602.578857,168.079391 
	C601.165527,163.453812 602.303101,160.028625 606.457214,158.283844 
	C609.962891,156.811356 613.397644,157.393570 615.728027,160.738281 
	C618.009888,164.013519 617.630798,167.360275 615.119080,170.350647 
	C611.703247,174.417236 606.532104,173.575775 602.578857,168.079391 
z"/>
<path fill="#000000" opacity="1.000000" stroke="none" 
	d="
M292.856995,248.122849 
	C288.573334,248.060883 286.314453,245.955292 285.349243,242.334702 
	C284.579834,239.448761 285.506256,237.043976 287.826904,235.281784 
	C290.277344,233.421066 292.992706,233.039169 295.772980,234.584427 
	C298.348206,236.015717 299.525177,238.239410 299.324615,241.203262 
	C299.063324,245.064392 296.919647,247.237228 292.856995,248.122849 
z"/>
<path fill="#000000" opacity="1.000000" stroke="none" 
	d="
M354.771759,237.959595 
	C356.675476,234.457550 359.403564,233.193024 362.860687,233.887894 
	C365.680847,234.454727 367.647675,236.223541 368.165100,239.160263 
	C368.725555,242.341293 367.958801,245.164688 365.091553,246.982559 
	C362.660339,248.523972 360.004913,248.756104 357.602966,246.997086 
	C354.675385,244.853104 353.261505,242.023285 354.771759,237.959595 
z"/>
<path fill="#000000" opacity="1.000000" stroke="none" 
	d="
M327.750305,248.102524 
	C322.446808,248.087509 319.985901,245.271301 319.790314,240.698059 
	C319.612671,236.543350 322.288300,234.225632 326.199677,233.791962 
	C330.264404,233.341293 333.048187,235.596527 333.815186,239.442932 
	C334.694366,243.851944 332.315552,246.676758 327.750305,248.102524 
z"/>
</svg>