<svg version="1.1" id="Layer_1" xmlns="http://www.w3.org/2000/svg" xmlns:xlink="http://www.w3.org/1999/xlink" x="0px" y="0px"
	 width="100%" viewBox="0 0 1024 1024" enable-background="new 0 0 1024 1024" xml:space="preserve">
<path fill="#000000" opacity="1.000000" stroke="none" 
	d="
M87.179703,638.734192 
	C83.185234,633.685913 81.576797,628.262756 81.623573,622.195984 
	C81.719933,609.696838 81.606529,597.196167 81.667725,584.696533 
	C81.690048,580.135559 79.916008,576.742798 76.084984,574.220764 
	C54.684322,560.131958 44.329418,539.835388 42.980015,514.626953 
	C41.573193,488.345886 40.054279,462.054199 40.870754,435.723633 
	C41.453716,416.923615 41.947014,398.106873 43.758900,379.365814 
	C46.401768,352.029572 69.454155,326.491089 98.333481,318.698639 
	C106.152687,316.588837 114.132362,316.647186 122.107239,316.236908 
	C158.055206,314.387482 194.019089,313.011322 230.014389,314.014587 
	C251.318787,314.608398 272.614044,315.695923 293.896790,316.863831 
	C328.188141,318.745514 356.271271,344.226807 361.334991,377.893921 
	C363.617157,393.067047 364.117798,408.377991 364.273773,423.694733 
	C364.329193,429.132935 361.323883,432.417999 356.783386,432.324951 
	C352.611542,432.239502 350.039886,428.943359 349.639587,423.708038 
	C348.410095,407.628448 349.091461,391.382751 345.765778,375.486267 
	C341.167633,353.507538 320.928192,335.223480 298.589966,332.264160 
	C288.645294,330.946747 278.646698,330.991821 268.683014,330.495056 
	C234.220642,328.776733 199.712997,328.501373 165.230835,329.505890 
	C146.106110,330.062958 126.925766,330.209442 107.871216,332.324951 
	C81.609024,335.240631 59.831390,359.262695 58.134480,385.711914 
	C56.073120,417.841766 55.636974,449.977692 56.383640,482.129517 
	C56.715446,496.417419 56.811729,510.821198 59.370193,524.922363 
	C62.209934,540.573853 70.672089,552.887939 84.136032,561.508179 
	C92.437325,566.822998 96.466393,574.196716 96.353622,584.057617 
	C96.220230,595.722656 96.334114,607.390442 96.345322,619.057068 
	C96.346603,620.390137 96.296928,621.729919 96.408501,623.055054 
	C96.773041,627.384583 98.540985,630.841797 102.993774,632.090454 
	C107.028381,633.221802 110.113083,631.328979 112.574471,628.292236 
	C122.227394,616.382935 132.614319,604.974854 141.279175,592.383118 
	C151.045425,578.190857 162.994415,571.324341 180.499619,573.536377 
	C189.686661,574.697327 199.139069,573.764648 208.471649,573.762756 
	C210.644867,573.762268 212.791183,573.799255 214.860031,574.640076 
	C217.830963,575.847473 219.201202,578.075684 219.355499,581.203308 
	C219.515549,584.447266 218.012192,586.671875 215.117050,587.879639 
	C212.303085,589.053589 209.298965,589.148865 206.270523,589.079163 
	C194.446915,588.807068 182.618774,588.695496 170.798950,588.316772 
	C166.214447,588.169861 162.885483,589.820740 160.048767,593.386414 
	C148.328568,608.118408 136.457855,622.730530 124.667297,637.406677 
	C114.432648,650.146118 98.925148,650.828369 87.179703,638.734192 
z"/>
<path fill="#000000" opacity="1.000000" stroke="none" 
	d="
M406.850708,451.034790 
	C420.272736,460.842743 426.288544,473.920380 427.479462,490.022888 
	C429.091217,511.816650 428.448364,533.590759 428.289429,555.379639 
	C428.228455,563.741760 427.018616,571.951294 424.564209,579.945496 
	C421.550201,589.762573 416.548676,598.247253 407.603577,603.839172 
	C405.049652,605.435791 404.038849,607.477539 404.086182,610.443665 
	C404.197784,617.436768 404.303711,624.440430 404.050049,631.426697 
	C403.510590,646.283569 390.466370,654.773865 378.240448,648.400818 
	C374.721344,646.566406 372.404602,643.485535 370.008789,640.514343 
	C364.051300,633.126282 358.067291,625.754822 352.315857,618.207642 
	C350.034821,615.214417 347.407562,614.249817 343.741882,614.395691 
	C318.103394,615.415955 292.491882,614.632202 266.958313,612.245300 
	C246.497482,610.332642 228.549164,591.683777 226.677902,571.272034 
	C223.996017,542.017578 224.323364,512.771729 226.718903,483.528656 
	C228.428009,462.664734 248.539536,444.020477 270.001312,442.631836 
	C296.602448,440.910767 323.215729,440.304474 349.850220,440.934448 
	C361.650665,441.213562 373.457214,441.906097 385.219147,442.904022 
	C392.943695,443.559418 400.053894,446.530487 406.850708,451.034790 
M241.191467,560.699158 
	C241.234512,562.198425 241.289703,563.697388 241.318726,565.196960 
	C241.630020,581.287964 251.995026,594.075684 267.596466,597.215820 
	C271.316833,597.964600 275.215149,597.831726 279.032104,598.097412 
	C299.811859,599.543884 320.602051,600.370300 341.430359,599.244873 
	C350.581085,598.750549 358.392120,601.026001 364.185028,608.932251 
	C370.186371,617.122986 376.775330,624.883423 383.115326,632.825623 
	C384.048218,633.994324 384.997253,635.459412 386.713684,635.031189 
	C388.756470,634.521484 388.761566,632.622131 388.771698,630.942322 
	C388.808960,624.775879 389.054138,618.596741 388.751099,612.445496 
	C388.301483,603.317932 391.481506,596.438965 399.292755,591.303650 
	C406.430023,586.611511 410.705658,579.561768 411.696442,571.040100 
	C412.694000,562.460327 413.397583,553.811340 413.579773,545.178955 
	C413.952301,527.526184 413.590881,509.881989 412.803009,492.225037 
	C411.902222,472.038208 399.745880,458.581757 379.634674,457.438171 
	C344.339417,455.431183 309.026611,455.408417 273.728180,457.424042 
	C255.768158,458.449585 242.310577,470.838867 241.340500,486.888397 
	C240.526489,500.356140 239.807785,513.836365 240.052719,527.326111 
	C240.249069,538.140076 239.566757,548.993896 241.191467,560.699158 
z"/>
<path fill="#000000" opacity="1.000000" stroke="none" 
	d="
M207.543442,381.561462 
	C219.200455,399.723053 217.248703,418.781616 202.064087,434.138733 
	C186.853577,449.522125 171.482086,464.747894 156.067719,479.927551 
	C144.651688,491.169800 127.528549,494.146729 112.525848,487.767059 
	C98.025558,481.601044 88.877754,467.437653 88.597588,451.593079 
	C88.387665,439.720856 92.478264,429.854187 100.810028,421.550964 
	C115.667778,406.744019 130.328110,391.735443 145.350739,377.098328 
	C165.085022,357.870514 190.747559,359.719116 207.543442,381.561462 
M145.170486,410.353333 
	C154.987640,420.170715 164.804779,429.988098 174.912033,440.095581 
	C182.515610,432.196472 190.695251,426.015747 196.194946,417.364563 
	C201.853149,408.463989 201.011200,397.257721 194.458679,388.906982 
	C188.361160,381.136108 177.034607,377.486481 167.572205,380.518341 
	C154.928253,384.569611 148.870087,396.233276 139.663620,403.934021 
	C140.190170,405.001587 140.274368,405.356201 140.491806,405.583313 
	C141.870819,407.023773 143.279312,408.436035 145.170486,410.353333 
M135.999268,474.691620 
	C148.341461,470.383606 154.594345,459.134918 163.698456,451.362335 
	C151.536804,439.290527 139.885986,427.725769 127.749451,415.678894 
	C122.307510,421.208496 116.486526,426.898193 110.922882,432.829315 
	C102.548653,441.756500 101.065987,453.390564 106.797615,463.195190 
	C112.568581,473.067078 123.288193,477.466217 135.999268,474.691620 
z"/>
<path fill="#000000" opacity="1.000000" stroke="none" 
	d="
M727.680542,450.981445 
	C727.502808,447.732056 728.903320,446.666992 731.589600,446.692810 
	C738.581787,446.760040 745.587585,446.465942 752.564514,446.802368 
	C762.039856,447.259247 768.069214,454.322540 767.228210,463.380341 
	C766.753418,468.493591 763.947937,471.899963 758.692322,474.121948 
	C761.928650,476.273163 764.810181,477.937317 766.240601,481.126068 
	C770.160522,489.864502 763.870483,499.869781 753.815979,500.312653 
	C746.504333,500.634735 739.167236,500.404480 731.841736,500.371216 
	C730.018616,500.362946 727.791077,500.468750 727.844543,497.823730 
	C727.893677,495.397186 726.186768,492.076294 729.743408,490.908051 
	C732.550720,489.985901 732.671387,488.171051 732.665222,485.916718 
	C732.642761,477.758301 732.630432,469.599701 732.656799,461.441315 
	C732.663635,459.318634 732.484497,457.541779 729.905273,456.862183 
	C726.989441,456.093964 727.843811,453.492645 727.680542,450.981445 
M743.802368,458.319885 
	C742.460754,469.878845 743.425049,469.493073 752.216553,468.688995 
	C755.254089,468.411194 756.703369,466.152832 756.623718,463.069031 
	C756.546692,460.083527 755.260742,457.882019 752.180359,457.392700 
	C749.594055,456.981903 746.928101,456.690918 743.802368,458.319885 
M745.175842,479.545624 
	C741.889893,482.565125 742.381897,486.961029 744.263184,489.414276 
	C746.356384,492.143890 750.705750,491.121216 753.975159,489.698090 
	C755.977417,488.826569 756.703491,486.883392 756.598877,484.717560 
	C756.492493,482.514465 755.404480,481.042938 753.349243,480.142731 
	C750.946350,479.090302 748.462463,479.395905 745.175842,479.545624 
z"/>
<path fill="#000000" opacity="1.000000" stroke="none" 
	d="
M580.538147,454.844025 
	C583.471924,464.916443 582.263733,468.575500 574.172607,474.191559 
	C576.909241,476.338654 579.936646,478.122925 581.201904,481.549927 
	C584.581177,490.703339 578.645752,499.891510 568.734863,500.323120 
	C561.427734,500.641357 554.098877,500.477478 546.779663,500.484344 
	C544.978455,500.486023 542.712524,500.715668 542.782288,498.024109 
	C542.845764,495.573029 541.180542,492.114075 544.465271,490.987488 
	C547.523621,489.938568 547.620850,488.101959 547.613159,485.685303 
	C547.588440,477.866669 547.597046,470.047882 547.606506,462.229156 
	C547.609375,459.867371 547.668518,457.872223 544.659851,456.727600 
	C541.124878,455.382721 542.817566,451.840912 542.815735,449.238190 
	C542.813599,446.238647 545.407654,446.737946 547.299438,446.719849 
	C553.786621,446.657806 560.281006,446.528656 566.760803,446.758911 
	C572.529968,446.963928 577.473267,449.027374 580.538147,454.844025 
M571.326294,461.153778 
	C569.675293,456.539673 565.747498,457.164642 562.110779,457.180084 
	C560.399902,457.187378 558.424927,457.300446 558.480774,459.585419 
	C558.554321,462.590851 556.791870,466.320831 559.832947,468.428345 
	C564.547852,471.695892 571.042297,467.855438 571.326294,461.153778 
M558.784058,489.555603 
	C562.827393,491.490875 566.817627,491.566498 570.258972,488.478851 
	C572.001221,486.915741 572.168884,484.560669 570.869141,482.512238 
	C568.633362,478.988647 564.983276,479.370361 561.483093,479.354065 
	C559.059937,479.342804 558.286865,480.664581 558.340210,482.822540 
	C558.389343,484.812561 558.426514,486.802826 558.784058,489.555603 
z"/>
<path fill="#000000" opacity="1.000000" stroke="none" 
	d="
M878.659302,501.045166 
	C864.073303,497.633392 862.126892,473.900665 872.432190,465.132324 
	C878.210449,460.215759 886.398010,460.362061 894.598572,465.511475 
	C895.821899,461.061981 895.498413,456.544556 895.320679,452.116760 
	C895.171753,448.406433 895.902832,446.576843 900.113220,446.588043 
	C904.138611,446.598785 906.282593,447.375122 906.213257,452.057892 
	C906.001038,466.379730 906.159668,480.706787 906.121155,495.031677 
	C906.114685,497.438385 906.675537,500.672943 902.875244,500.483765 
	C899.711426,500.326294 894.802246,502.508148 895.111633,495.149231 
	C890.792603,501.628876 885.045959,501.744049 878.659302,501.045166 
M894.935486,483.687103 
	C895.711487,479.040985 894.740295,475.018707 890.391602,472.560150 
	C885.869141,470.003357 880.033325,471.731201 877.905823,476.040405 
	C875.340088,481.237366 877.304810,488.536194 881.777100,490.421997 
	C887.391846,492.789581 892.435425,490.460999 894.935486,483.687103 
z"/>
<path fill="#000000" opacity="1.000000" stroke="none" 
	d="
M822.130493,470.454834 
	C828.458191,460.425537 838.684509,458.592468 848.209961,465.810028 
	C849.460693,461.143158 848.864502,456.552643 848.742126,452.078186 
	C848.615051,447.430481 850.768921,446.659973 854.815369,446.574951 
	C859.256226,446.481628 859.524902,448.691315 859.508545,452.142639 
	C859.441711,466.256683 860.448486,480.375824 859.377136,494.482391 
	C859.215393,496.611420 861.023743,500.092682 856.876587,500.283173 
	C853.562805,500.435394 849.291199,502.050934 848.258057,496.400269 
	C842.935425,501.982849 836.662781,502.659241 830.191833,500.212708 
	C823.154114,497.551849 820.633118,491.348907 819.784973,484.418304 
	C819.210449,479.723938 819.973022,475.138519 822.130493,470.454834 
M830.426208,479.933105 
	C830.258423,484.297791 830.973999,488.291229 835.390442,490.439392 
	C840.194824,492.776245 846.065857,490.758636 848.086365,486.186279 
	C850.596619,480.505920 848.181335,473.899628 842.893494,471.982849 
	C837.374329,469.982208 832.748657,472.673706 830.426208,479.933105 
z"/>
<path fill="#000000" opacity="1.000000" stroke="none" 
	d="
M930.075500,516.236084 
	C926.626709,515.574707 922.066833,518.217285 921.689453,512.257812 
	C921.341736,506.765167 922.033203,505.939819 927.674622,505.865143 
	C929.005310,505.847534 930.336487,505.870361 931.667358,505.863831 
	C940.475708,505.820709 940.593628,505.683929 939.412903,496.174988 
	C936.238159,500.356964 932.223206,501.707977 927.469482,501.363434 
	C921.674622,500.943420 917.212891,497.779907 915.863037,492.107300 
	C913.718445,483.095184 914.853638,473.885376 915.031921,464.769897 
	C915.103394,461.118225 918.632568,462.140808 920.946106,462.026093 
	C923.259705,461.911316 925.321350,462.358856 925.305664,465.443146 
	C925.276855,471.099213 925.276672,476.756287 925.350037,482.411804 
	C925.428101,488.431030 927.749512,491.283264 932.423706,491.285767 
	C937.126099,491.288300 939.673706,488.420319 939.835144,482.612274 
	C939.982971,477.292114 940.017395,471.964111 939.915955,466.643127 
	C939.823975,461.821930 943.068359,462.035828 946.356262,461.976105 
	C949.857056,461.912567 950.921387,463.648560 950.865173,466.952179 
	C950.633362,480.585510 950.575562,494.221680 950.421509,507.856415 
	C950.349792,514.201660 948.403381,516.146362 942.041504,516.239685 
	C938.215942,516.295837 934.388733,516.241394 930.075500,516.236084 
z"/>
<path fill="#000000" opacity="1.000000" stroke="none" 
	d="
M661.102661,487.530945 
	C661.935059,492.088531 665.261230,490.599365 667.591309,490.608246 
	C671.138550,490.621765 673.219055,491.326874 673.217346,495.541168 
	C673.215698,499.681580 671.297485,500.546021 667.669983,500.484253 
	C658.854187,500.334167 650.031067,500.335999 641.216553,500.531860 
	C637.881958,500.605988 636.755005,499.362366 636.904907,496.168030 
	C637.047974,493.120728 637.165649,490.714996 641.355042,490.594452 
	C649.915771,490.348175 649.916748,490.152069 649.927551,481.520935 
	C649.934998,475.530884 649.936340,469.540741 649.912903,463.550781 
	C649.888245,457.253510 649.871521,457.052185 643.067993,457.133270 
	C638.936890,457.182465 637.501770,455.655609 637.567261,451.563477 
	C637.626160,447.883514 638.949646,446.481110 642.586548,446.643219 
	C646.904236,446.835693 651.249146,446.897156 655.559570,446.637848 
	C659.726196,446.387268 661.138672,448.078400 661.085876,452.145355 
	C660.934692,463.790375 661.055969,475.438934 661.102661,487.530945 
z"/>
<path fill="#000000" opacity="1.000000" stroke="none" 
	d="
M812.024414,495.757751 
	C812.216431,499.988892 809.913940,500.588654 806.858398,500.439270 
	C803.899841,500.294617 800.388489,501.145355 801.079834,495.124481 
	C796.536194,501.844391 790.820374,502.405945 784.937683,500.669800 
	C778.645325,498.812714 776.429871,493.375702 776.085999,487.447662 
	C775.681641,480.477722 776.020508,473.467224 775.925415,466.475861 
	C775.870300,462.425903 778.421631,462.009491 781.548218,461.971436 
	C784.734253,461.932678 786.537964,462.880157 786.395996,466.543091 
	C786.189880,471.863403 786.279602,477.199829 786.387573,482.526459 
	C786.506470,488.393768 789.031250,491.452026 793.568115,491.507141 
	C798.076660,491.561951 800.719849,488.505554 800.887146,482.691406 
	C801.040344,477.366760 801.066895,472.033142 800.951538,466.707794 
	C800.858215,462.398926 803.481689,461.980347 806.830627,461.942902 
	C810.276306,461.904388 812.123291,463.026428 812.076721,466.811676 
	C811.959900,476.301941 812.035889,485.794556 812.024414,495.757751 
z"/>
<path fill="#000000" opacity="1.000000" stroke="none" 
	d="
M696.612915,461.386353 
	C696.633179,455.537384 692.469788,457.030457 689.740479,457.165192 
	C685.099121,457.394257 683.463806,455.626495 683.744080,451.069153 
	C683.939331,447.893066 685.100159,446.580200 688.272339,446.663696 
	C693.091797,446.790527 697.921082,446.829712 702.738281,446.669647 
	C706.311646,446.550934 707.325989,448.260315 707.295776,451.528198 
	C707.197510,462.170593 707.256531,472.814453 707.253479,483.457733 
	C707.251465,490.477051 707.251831,490.675873 714.189026,490.625275 
	C718.107544,490.596741 719.453186,491.992371 719.376221,495.878845 
	C719.308411,499.307007 718.197632,500.575500 714.708923,500.499329 
	C705.898865,500.306915 697.080872,500.317932 688.269104,500.451141 
	C684.868835,500.502533 683.525635,499.324524 683.555542,495.828461 
	C683.584595,492.431671 684.298279,490.287445 688.241638,490.667542 
	C689.559265,490.794556 690.906799,490.591614 692.229492,490.689697 
	C695.450256,490.928589 696.700256,489.473633 696.658020,486.283661 
	C696.550293,478.136292 696.620117,469.986603 696.612915,461.386353 
z"/>
<path fill="#000000" opacity="1.000000" stroke="none" 
	d="
M615.171143,466.340729 
	C615.176880,472.959991 615.355225,479.118866 615.102783,485.260010 
	C614.937317,489.284607 616.199280,490.945709 620.442505,490.779907 
	C625.278442,490.590881 626.537476,492.430786 625.909912,497.135040 
	C625.618713,499.318146 624.649597,500.416534 622.390503,500.406952 
	C613.247253,500.368011 604.103638,500.394165 594.960449,500.346222 
	C591.429993,500.327728 591.781433,497.654846 591.745605,495.345551 
	C591.710999,493.112732 591.727661,491.019775 594.855896,490.683014 
	C597.883179,490.357117 601.747375,492.198181 603.760986,489.279236 
	C605.756775,486.386078 604.505066,482.476654 604.552185,479.020813 
	C604.641235,472.484894 604.548340,472.326447 597.660645,472.316589 
	C594.118530,472.311523 592.603882,471.248260 592.585327,467.469116 
	C592.567139,463.760101 593.565735,461.823608 597.562378,461.960205 
	C601.879944,462.107819 606.205811,462.008270 610.527954,462.031128 
	C613.111572,462.044769 615.198669,462.684662 615.171143,466.340729 
z"/>
<path fill="#000000" opacity="1.000000" stroke="none" 
	d="
M603.820923,446.962891 
	C607.204102,443.989624 610.614502,443.389679 614.021851,445.917297 
	C616.780701,447.963806 617.812927,450.888123 616.757874,454.274689 
	C615.709229,457.640869 613.330444,459.493835 609.804443,459.648834 
	C603.448242,459.928253 600.392517,453.806915 603.820923,446.962891 
z"/>
<path fill="#000000" opacity="1.000000" stroke="none" 
	d="
M334.050964,527.180908 
	C333.769562,531.183350 332.109772,533.850281 328.488892,534.869385 
	C326.106354,535.539917 323.883453,534.963928 322.111603,533.178833 
	C319.822723,530.872986 318.950531,528.054016 320.172577,525.022034 
	C321.303833,522.215332 323.612976,520.567200 326.737152,520.605469 
	C330.793030,520.655090 333.032501,523.015564 334.050964,527.180908 
z"/>
<path fill="#000000" opacity="1.000000" stroke="none" 
	d="
M367.587708,531.126465 
	C364.828400,535.223145 361.359680,536.407837 357.564575,533.903442 
	C354.407135,531.819946 353.133942,528.449036 354.918854,524.750671 
	C356.667206,521.128113 359.873383,519.632812 363.609344,521.015137 
	C368.107361,522.679382 369.153839,526.335754 367.587708,531.126465 
z"/>
<path fill="#000000" opacity="1.000000" stroke="none" 
	d="
M286.973999,523.096558 
	C292.775085,519.176636 298.340363,520.735291 299.218567,526.242920 
	C299.764923,529.669556 298.722931,532.544983 295.519867,534.233032 
	C292.512604,535.817932 289.580200,535.331482 287.334564,532.872437 
	C284.704071,529.991943 284.261780,526.710449 286.973999,523.096558 
z"/>
</svg>